   <svg
      width="43"
      height="19"
      viewBox="0 0 43 19"
      fill="none"
      xmlns="http://www.w3.org/2000/svg"
    >
      <path
        fill-rule="evenodd"
        clip-rule="evenodd"
        d="M8.14279 17.2692C6.43549 16.5225 4.87725 15.472 3.54355 14.1686C3.26914 13.8927 3.00691 13.6082 2.75684 13.3152C1.76912 12.1684 0.983948 10.8611 0.435167 9.44949C0.303627 9.10373 0.187158 8.7523 0.0889857 8.39587C0.0567059 8.29055 0.0270438 8.18458 0 8.07796L1.96568 6.64027C2.19259 6.84743 2.42737 7.0453 2.67003 7.23389C3.27254 7.69867 3.92275 8.09776 4.60966 8.42438C6.02838 9.11264 7.59287 9.44452 9.16813 9.3914C10.7073 9.36552 12.1882 8.79712 13.3509 7.78594C13.9449 7.24313 14.4647 6.6239 14.8966 5.94439C15.1363 5.56881 15.3414 5.17583 15.5466 4.78263C15.7114 4.46667 15.8761 4.15093 16.0589 3.84389C16.7095 2.76148 17.6452 1.87986 18.7633 1.29598C19.8813 0.712108 21.1383 0.448594 22.3961 0.534425C23.6539 0.620255 24.8637 1.0521 25.8925 1.78248C26.9213 2.51285 27.7292 3.51346 28.2273 4.67425C28.4425 3.72743 28.8605 2.8388 29.4522 2.06986C30.011 1.39019 30.6681 1.01065 31.345 0.976529C31.9624 0.957468 32.5718 1.22647 33.1124 1.75669C33.7158 2.39278 34.1649 3.15972 34.4247 3.99795C34.5183 4.27583 34.6025 4.56154 34.6865 4.84747C34.7914 5.20324 34.8963 5.55902 35.0187 5.89891C35.2234 6.48037 35.488 7.03885 35.8083 7.56529C36.4022 8.4803 37.1588 8.99471 37.9449 9.01799C38.7497 9.06608 39.549 8.76579 40.2737 8.14302C40.6455 7.82473 40.9781 7.46314 41.2645 7.0659C41.3885 6.89508 41.5085 6.71593 41.6245 6.52843L42.6285 7.82946C42.6146 7.92607 42.5995 8.02196 42.5832 8.11712C42.533 8.4396 42.474 8.75744 42.4062 9.07064C42.1493 10.2793 41.7513 11.4535 41.2202 12.5688C41.0924 12.834 40.9584 13.0915 40.8184 13.341C40.2227 14.4192 39.4249 15.3719 38.4688 16.1468C38.0305 16.4931 37.5436 16.7726 37.0238 16.9763C36.6362 17.1162 36.2333 17.2092 35.8237 17.2531C34.9949 17.3362 34.1592 17.1922 33.4057 16.8364C32.3083 16.3413 31.2786 15.4576 30.3783 14.2384C29.4906 13.0161 28.8117 11.6543 28.3693 10.2089C28.3287 10.079 28.2907 9.9467 28.2553 9.81201V9.99632C28.1549 10.2396 28.0406 10.477 27.913 10.7072C26.9207 12.4462 25.5819 13.962 23.9801 15.1602C22.2178 16.5074 20.2021 17.4839 18.0541 18.0312C16.5099 18.4309 14.9128 18.5863 13.3207 18.4916C12.5315 18.4446 11.7464 18.3424 10.9713 18.1857C10.0004 17.9755 9.05279 17.6685 8.14279 17.2692Z"
        fill="currentColor"
      />
    </svg>